#!OML:ASF H:\Dans Jumps\Project 1\Capture day 1\Session 1\subject.ASF
:FULLY-SPECIFIED
:DEGREES
389
root 0.360599 17.5829 5.54855 3.46125 3.73494 -1.58883
lowerback 1.47347 0.602996 0.984727
upperback 3.12299 0.770885 1.85563
thorax 2.36502 0.384622 1.3574
lowerneck -11.7703 -1.32362 -1.84533
upperneck 32.6815 -1.89948 1.48107
head 12.8719 -0.849025 0.631676
rclavicle 1.18277e-014 2.38542e-015
rhumerus -15.8393 -15.9429 -86.1198
rradius 26.5691
rwrist 34.1049
rhand -25.5293 -26.8517
rfingers 7.12502
rthumb 1.00038 -56.8291
lclavicle 1.18277e-014 2.38542e-015
lhumerus -24.2886 11.036 85.0309
lradius 11.779
lwrist -3.69371
lhand -24.8728 -5.32055
lfingers 7.12502
lthumb 1.63442 24.6529
rfemur -17.7181 -1.99275 21.1016
rtibia 25.7497
rfoot -10.5242 -1.44338
rtoes 20.2782
lfemur -16.8352 4.57645 -16.6437
ltibia 23.994
lfoot -8.6976 1.89292
ltoes -4.40854
390
root 0.366569 17.586 5.56693 3.50398 3.6502 -1.54895
lowerback 1.43324 0.587256 0.9718
upperback 3.12078 0.749493 1.82939
thorax 2.38583 0.373939 1.33803
lowerneck -11.7832 -1.31004 -1.87352
upperneck 32.5482 -1.86844 1.47143
head 12.818 -0.840887 0.636525
rclavicle -1.14301e-014 2.78299e-015
rhumerus -16.0199 -16.2315 -86.0883
rradius 26.2333
rwrist 34.3906
rhand -25.4835 -26.9179
rfingers 7.12502
rthumb 1.0446 -56.895
lclavicle -1.14301e-014 2.78299e-015
lhumerus -24.1642 10.4458 85.3527
lradius 11.9193
lwrist -3.51837
lhand -24.9435 -5.47244
lfingers 7.12502
lthumb 1.56612 24.5016
rfemur -17.6715 -1.94919 21.0455
rtibia 25.7034
rfoot -10.5572 -1.44799
rtoes 20.2664
lfemur -16.7251 4.68673 -16.7013
ltibia 23.8669
lfoot -8.72873 1.85276
ltoes -4.43387
391
root 0.372424 17.589 5.58499 3.55155 3.57907 -1.51413
lowerback 1.38987 0.566234 0.961511
upperback 3.11618 0.721018 1.80553
thorax 2.40606 0.359753 1.31957
lowerneck -11.7972 -1.295 -1.90335
upperneck 32.4168 -1.83431 1.46007
head 12.7653 -0.83174 0.641437
rclavicle 7.95139e-015 1.03368e-014
rhumerus -16.1964 -16.535 -86.0438
rradius 25.8749
rwrist 34.7075
rhand -25.4356 -26.9767
rfingers 7.12502
rthumb 1.09089 -56.9537
lclavicle 7.95139e-015 1.03368e-014
lhumerus -24.0452 9.88583 85.658
lradius 12.0588
lwrist -3.37501
lhand -25.0463 -5.71627
lfingers 7.12502
lthumb 1.46686 24.2584
rfemur -17.6248 -1.91001 20.9952
rtibia 25.646
rfoot -10.5895 -1.46136
rtoes 20.2063
lfemur -16.6281 4.7881 -16.7538
ltibia 23.7461
lfoot -8.75977 1.80947
ltoes -4.44642
392
root 0.377879 17.5924 5.60373 3.59711 3.52246 -1.48558
lowerback 1.34712 0.538783 0.950268
upperback 3.10244 0.684132 1.78494
thorax 2.41657 0.341308 1.3048
lowerneck -11.7558 -1.27447 -1.89901
upperneck 32.2627 -1.79209 1.41922
head 12.6905 -0.818896 0.63035
rclavicle 6.75868e-015 7.95139e-016
rhumerus -16.3912 -16.8657 -85.9786
rradius 25.4912
rwrist 35.0793
rhand -25.3736 -26.9948
rfingers 7.12502
rthumb 1.15078 -56.9715
lclavicle 6.75868e-015 7.95139e-016
lhumerus -23.9533 9.35152 85.9423
lradius 12.199
lwrist -3.23127
lhand -25.1581 -5.98051
lfingers 7.12502
lthumb 1.35883 23.9949
rfemur -17.5661 -1.87485 20.9527
rtibia 25.576
rfoot -10.624 -1.48484
rtoes 20.1082
lfemur -16.5322 4.88001 -16.7982
ltibia 23.6302
lfoot -8.79354 1.76432
ltoes -4.4537
393
root 0.38337 17.5957 5.62238 3.6449 3.47913 -1.46721
lowerback 1.29963 0.507317 0.947781
upperback 3.08644 0.641755 1.76855
thorax 2.42757 0.320273 1.28939
lowerneck -11.7194 -1.25609 -1.90286
upperneck 32.1172 -1.75302 1.38439
head 12.621 -0.807544 0.62261
rclavicle 2.38542e-015 -6.36111e-015
rhumerus -16.5911 -17.2079 -85.8941
rradius 25.0922
rwrist 35.4764
rhand -25.2778 -26.9768
rfingers 7.12502
rthumb 1.24329 -56.9529
lclavicle 2.38542e-015 -6.36111e-015
lhumerus -23.8567 8.82283 86.2243
lradius 12.337
lwrist -3.03929
lhand -25.2357 -6.20364
lfingers 7.12502
lthumb 1.28393 23.7722
rfemur -17.5018 -1.84596 20.9198
rtibia 25.4936
rfoot -10.6589 -1.5084
rtoes 19.9924
lfemur -16.445 4.95856 -16.8323
ltibia 23.519
lfoot -8.82524 1.72294
ltoes -4.4472
394
root 0.388999 17.5992 5.64099 3.69103 3.45001 -1.45735
lowerback 1.24929 0.471559 0.953619
upperback 3.06963 0.593527 1.75591
thorax 2.43945 0.296465 1.2731
lowerneck -11.6909 -1.23711 -1.89762
upperneck 31.9815 -1.71215 1.33916
head 12.5572 -0.795498 0.609578
rclavicle -4.17448e-015 -7.95139e-016
rhumerus -16.7967 -17.5537 -85.79
rradius 24.6828
rwrist 35.8984
rhand -25.1468 -26.9386
rfingers 7.12502
rthumb 1.36976 -56.914
lclavicle -4.17448e-015 -7.95139e-016
lhumerus -23.7545 8.3144 86.5004
lradius 12.4761
lwrist -2.80264
lhand -25.2733 -6.32584
lfingers 7.12502
lthumb 1.2476 23.6503
rfemur -17.4285 -1.83139 20.8948
rtibia 25.3985
rfoot -10.6909 -1.5269
rtoes 19.8536
lfemur -16.3612 5.0216 -16.8583
ltibia 23.4129
lfoot -8.85567 1.68742
ltoes -4.44115
395
root 0.394733 17.6029 5.65943 3.73703 3.42709 -1.45653
lowerback 1.19642 0.43573 0.968594
upperback 3.05425 0.545043 1.74574
thorax 2.45427 0.272714 1.2542
lowerneck -11.6883 -1.22056 -1.89415
upperneck 31.8618 -1.67431 1.29428
head 12.5059 -0.784752 0.59654
rclavicle 3.47873e-015 0
rhumerus -17.0111 -17.8798 -85.6728
rradius 24.2831
rwrist 36.3095
rhand -24.9626 -26.9176
rfingers 7.12502
rthumb 1.54764 -56.8917
lclavicle 3.47873e-015 0
lhumerus -23.6399 7.83922 86.767
lradius 12.6114
lwrist -2.53345
lhand -25.2281 -6.27484
lfingers 7.12502
lthumb 1.29131 23.701
rfemur -17.351 -1.82042 20.8779
rtibia 25.2926
rfoot -10.7147 -1.53871
rtoes 19.7517
lfemur -16.2835 5.07333 -16.8752
ltibia 23.3132
lfoot -8.88443 1.6616
ltoes -4.43374
396
root 0.400649 17.6067 5.67744 3.78645 3.41056 -1.46884
lowerback 1.1358 0.400099 0.996293
upperback 3.04301 0.496415 1.74063
thorax 2.47778 0.249128 1.23341
lowerneck -11.7262 -1.20912 -1.91326
upperneck 31.7658 -1.64344 1.26699
head 12.4736 -0.777288 0.59311
rclavicle 8.05078e-015 -5.1684e-015
rhumerus -17.2217 -18.1942 -85.543
rradius 23.8889
rwrist 36.7173
rhand -24.7305 -26.9195
rfingers 7.12502
rthumb 1.77187 -56.8919
lclavicle 8.05078e-015 -5.1684e-015
lhumerus -23.4964 7.41664 87.0216
lradius 12.7342
lwrist -2.26077
lhand -25.1556 -6.11274
lfingers 7.12502
lthumb 1.36131 23.8627
rfemur -17.2744 -1.81874 20.8746
rtibia 25.1759
rfoot -10.7269 -1.54209
rtoes 19.6618
lfemur -16.2175 5.115 -16.8791
ltibia 23.222
lfoot -8.91178 1.64318
ltoes -4.41689
397
root 0.406672 17.6106 5.69519 3.84105 3.39477 -1.48831
lowerback 1.06704 0.366603 1.02896
upperback 3.03325 0.450304 1.73881
thorax 2.50733 0.226884 1.21325
lowerneck -11.7903 -1.20223 -1.94727
upperneck 31.685 -1.61944 1.25335
head 12.4537 -0.772732 0.596478
rclavicle -2.78299e-015 -4.37326e-015
rhumerus -17.438 -18.4821 -85.4014
rradius 23.512
rwrist 37.1065
rhand -24.4661 -26.9384
rfingers 7.12502
rthumb 2.02725 -56.9085
lclavicle -2.78299e-015 -4.37326e-015
lhumerus -23.3375 7.06275 87.2562
lradius 12.846
lwrist -2.01986
lhand -25.1045 -5.96055
lfingers 7.12502
lthumb 1.41064 24.0145
rfemur -17.2013 -1.82118 20.8785
rtibia 25.0501
rfoot -10.7329 -1.53558
rtoes 19.5995
lfemur -16.1636 5.14828 -16.8764
ltibia 23.1397
lfoot -8.93848 1.63621
ltoes -4.4011
398
root 0.412713 17.6145 5.71269 3.90093 3.38001 -1.52673
lowerback 0.994952 0.336064 1.0784
upperback 3.01753 0.407926 1.74258
thorax 2.53259 0.206834 1.18938
lowerneck -11.8527 -1.1975 -1.9816
upperneck 31.6084 -1.59953 1.2429
head 12.4352 -0.769557 0.600591
rclavicle -2.78299e-015 -1.55052e-014
rhumerus -17.6763 -18.7472 -85.2436
rradius 23.1549
rwrist 37.4816
rhand -24.1617 -26.9695
rfingers 7.12502
rthumb 2.32123 -56.9366
lclavicle -2.78299e-015 -1.55052e-014
lhumerus -23.1706 6.77083 87.4682
lradius 12.9366
lwrist -1.81768
lhand -25.1362 -5.94122
lfingers 7.12502
lthumb 1.38 24.0341
rfemur -17.1312 -1.82386 20.9028
rtibia 24.9136
rfoot -10.7315 -1.52268
rtoes 19.5835
lfemur -16.1226 5.17675 -16.853
ltibia 23.066
lfoot -8.96616 1.63613
ltoes -4.38399
399
root 0.418942 17.6184 5.7298 3.96318 3.36629 -1.56947
lowerback 0.921317 0.308486 1.13069
upperback 3.00161 0.369344 1.74775
thorax 2.55845 0.188738 1.16534
lowerneck -11.9382 -1.19361 -2.02551
upperneck 31.5482 -1.5828 1.24746
head 12.4287 -0.766867 0.611607
rclavicle 4.87022e-015 3.57812e-015
rhumerus -17.9256 -18.9892 -85.0731
rradius 22.8184
rwrist 37.8445
rhand -23.8469 -26.986
rfingers 7.12502
rthumb 2.62523 -56.9496
lclavicle 4.87022e-015 3.57812e-015
lhumerus -22.9859 6.54075 87.6601
lradius 13.0086
lwrist -1.66284
lhand -25.2559 -6.07333
lfingers 7.12502
lthumb 1.26444 23.9027
rfemur -17.0614 -1.83565 20.9309
rtibia 24.7684
rfoot -10.7271 -1.49697
rtoes 19.5781
lfemur -16.0876 5.19836 -16.8258
ltibia 22.9961
lfoot -8.99312 1.643
ltoes -4.36012
400
root 0.425023 17.6222 5.74756 4.01875 3.35008 -1.61855
lowerback 0.853346 0.283873 1.18362
upperback 2.97746 0.334909 1.75434
thorax 2.57251 0.172699 1.14229
lowerneck -11.9721 -1.18402 -2.03853
upperneck 31.4683 -1.56099 1.23506
head 12.4027 -0.760583 0.61167
rclavicle -8.24956e-015 -4.77083e-015
rhumerus -18.2114 -19.2144 -84.8846
rradius 22.5048
rwrist 38.2155
rhand -23.5146 -26.977
rfingers 7.12502
rthumb 2.94609 -56.9364
lclavicle -8.24956e-015 -4.77083e-015
lhumerus -22.8186 6.37327 87.8235
lradius 13.0707
lwrist -1.5645
lhand -25.3753 -6.21648
lfingers 7.12502
lthumb 1.14913 23.7602
rfemur -16.9776 -1.85259 20.9665
rtibia 24.6143
rfoot -10.7199 -1.46144
rtoes 19.5927
lfemur -16.0422 5.22046 -16.7903
ltibia 22.9264
lfoot -9.02258 1.65307
ltoes -4.34297
401
root 0.431271 17.6261 5.76545 4.06878 3.32771 -1.66566
lowerback 0.789385 0.263936 1.23131
upperback 2.95092 0.306826 1.76094
thorax 2.58172 0.1597 1.12219
lowerneck -11.9856 -1.17566 -2.04954
upperneck 31.3805 -1.54242 1.22473
head 12.3692 -0.755266 0.611791
rclavicle 3.47873e-015 -2.26615e-014
rhumerus -18.5195 -19.4188 -84.6804
rradius 22.2141
rwrist 38.5807
rhand -23.177 -26.9283
rfingers 7.12502
rthumb 3.27215 -56.8829
lclavicle 3.47873e-015 -2.26615e-014
lhumerus -22.6489 6.26107 87.9678
lradius 13.1126
lwrist -1.51672
lhand -25.5001 -6.40378
lfingers 7.12502
lthumb 1.02853 23.5735
rfemur -16.8859 -1.87908 20.9997
rtibia 24.4563
rfoot -10.712 -1.41099
rtoes 19.6058
lfemur -15.9848 5.24058 -16.7568
ltibia 22.8502
lfoot -9.04883 1.66924
ltoes -4.32855
